<?xml version="1.0" encoding="UTF-8" standalone="no"?>
<!DOCTYPE svg PUBLIC "-//W3C//DTD SVG 1.1//EN" "http://www.w3.org/Graphics/SVG/1.1/DTD/svg11.dtd">
<svg version="1.1" xmlns="http://www.w3.org/2000/svg" xmlns:xlink="http://www.w3.org/1999/xlink" preserveAspectRatio="xMidYMid meet" viewBox="-0.9990477324129046 -1.0004963694799827 67.99999999999999 48.03999999999999" width="64" height="44.04"><defs><path d="M19.92 43.17C21.08 44.33 22.96 44.33 24.13 43.17C25.29 42.01 25.29 40.12 24.13 38.96C23.2 38.03 18.54 33.37 10.16 25C40.68 25 57.63 25 61.03 25C62.67 25 64 23.66 64 22.02C64 20.38 62.67 19.04 61.03 19.04C57.63 19.04 40.68 19.04 10.16 19.04C18.54 10.67 23.2 6.01 24.13 5.08C25.29 3.92 25.29 2.03 24.13 0.87C23.55 0.29 22.78 0 22.02 0C21.26 0 20.5 0.29 19.92 0.87C18.01 2.78 2.78 18.01 0.87 19.92C-0.29 21.08 -0.29 22.96 0.87 24.12C4.68 27.93 18.01 41.26 19.92 43.17Z" id="cxdvVlalB"></path></defs><g><g><use xlink:href="#cxdvVlalB" opacity="1" fill="#4d8093" fill-opacity="1"></use><g><use xlink:href="#cxdvVlalB" opacity="1" fill-opacity="0" stroke="#000000" stroke-width="1" stroke-opacity="0"></use></g></g></g></svg>