<svg height="512" viewBox="0 0 512 512" width="512" xmlns="http://www.w3.org/2000/svg" xmlns:xlink="http://www.w3.org/1999/xlink"><clipPath id="a"><path d="m-284-622h1760v1403h-1760z"/></clipPath><clipPath id="b"><path d="m-859-700.5h1760v1403h-1760z"/></clipPath><clipPath id="c"><path d="m-1591-700.5h1760v1403h-1760z"/></clipPath><clipPath id="d"><path d="m-1225.5-836h1760v1403h-1760z"/></clipPath><g clip-path="url(#a)" transform="matrix(.29 0 0 .27 83.16 228.275)"><path d="m102.535 150h359.979c70.324 0 105.486 37.05 105.486 111.151v282.51h-171.875v-238.512h-223.512v897.701h223.512v-253.949h171.875v298.719c0 73.59-35.162 110.38-105.486 110.38h-359.979c-68.3566 0-102.535-36.79-102.535-110.38v-986.469c0-74.101 34.1784-111.151 102.535-111.151z" fill="#262626" fill-rule="evenodd" transform="translate(-284 -754)"/></g><g clip-path="url(#b)" transform="matrix(.29 0 0 .27 249.91 249.47)"><path d="m796.949 133h229.051v161.275h-157.807v1076.455h157.807v161.27h-229.051c-69.966 0-104.949-35.24-104.949-105.72v-1189.107c0-69.449 34.983-104.173 104.949-104.173z" fill="#262626" fill-rule="evenodd" transform="translate(-859 -832.5)"/></g><g clip-path="url(#c)" transform="matrix(.29 0 0 .27 462.19 249.47)"><path d="m1423 133h230.9c70.07 0 105.1 34.724 105.1 104.173v1189.107c0 70.48-35.03 105.72-105.1 105.72h-230.9v-161.27h160.33v-1076.455h-160.33z" fill="#262626" fill-rule="evenodd" transform="translate(-1591 -832.5)"/></g><g clip-path="url(#d)" transform="matrix(.29 0 0 .27 356.195 286.055)"><path d="m959.671 578h181.319l84.51 226.277 88.35-226.277h177.48v3.089l-169.79 373.782 187.46 403.129h-190.54l-92.96-244.81-96.04 244.81h-187.46v-3.09l187.46-398.494z" fill="#262626" fill-rule="evenodd" transform="translate(-1225.5 -968)"/></g></svg>