<?xml version="1.0" encoding="UTF-8" standalone="no" ?>
<!DOCTYPE svg PUBLIC "-//W3C//DTD SVG 1.1//EN" "http://www.w3.org/Graphics/SVG/1.1/DTD/svg11.dtd">
<svg xmlns="http://www.w3.org/2000/svg" xmlns:xlink="http://www.w3.org/1999/xlink" version="1.1" width="512" height="512" viewBox="0 0 512 512" xml:space="preserve">
<g transform="matrix(1.12 0 0 1.09 286.36 252.62)" id="X8KtExWSQHqzNgQUpMM2x"  >
<g style="" vector-effect="non-scaling-stroke"   >
		<g transform="matrix(0.1 0 0 -0.1 -169.7 -0.03)" id="QVZQknrgMg_RxVZhhNByY"  >
<path style="stroke: none; stroke-width: 1; stroke-dasharray: none; stroke-linecap: butt; stroke-dashoffset: 0; stroke-linejoin: miter; stroke-miterlimit: 4; fill: rgb(77,128,147); fill-rule: nonzero; opacity: 1;" vector-effect="non-scaling-stroke"  transform=" translate(-863, -2560.29)" d="M 405 3686 C 363 3668 322 3617 313 3572 C 309 3552 305 3090 305 2545 L 305 1555 L 330 1511 C 346 1483 369 1459 395 1446 C 433 1426 452 1425 828 1422 C 1272 1419 1315 1423 1366 1474 C 1384 1492 1403 1524 1409 1545 C 1416 1570 1420 1699 1420 1888 L 1420 2190 L 1255 2190 L 1090 2190 L 1090 1950 L 1090 1710 L 865 1710 L 640 1710 L 640 2565 L 640 3420 L 865 3420 L 1090 3420 L 1090 3195 L 1090 2970 L 1256 2970 L 1421 2970 L 1418 3278 C 1415 3567 1414 3587 1394 3620 C 1383 3639 1356 3665 1334 3677 C 1295 3700 1292 3700 865 3699 C 530 3699 428 3696 405 3686 z" stroke-linecap="round" />
</g>
		<g transform="matrix(0.1 0 0 -0.1 -54.45 18)" id="vweAhjG279yh4rcknMKE4"  >
<path style="stroke: none; stroke-width: 1; stroke-dasharray: none; stroke-linecap: butt; stroke-dashoffset: 0; stroke-linejoin: miter; stroke-miterlimit: 4; fill: rgb(77,128,147); fill-rule: nonzero; opacity: 1;" vector-effect="non-scaling-stroke"  transform=" translate(-2015.5, -2380)" d="M 1795 3686 C 1779 3679 1757 3663 1747 3652 C 1700 3600 1701 3625 1700 2390 C 1700 1582 1703 1213 1711 1185 C 1725 1135 1774 1083 1820 1070 C 1839 1065 1962 1060 2093 1060 L 2331 1060 L 2328 1208 L 2325 1355 L 2200 1357 C 2131 1357 2065 1358 2053 1359 L 2030 1360 L 2030 2385 L 2030 3410 L 2180 3410 L 2330 3410 L 2330 3555 L 2330 3700 L 2078 3700 C 1890 3699 1817 3696 1795 3686 z" stroke-linecap="round" />
</g>
		<g transform="matrix(0.1 0 0 -0.1 144.45 18)" id="9ESf3ctesQgLZiNFm9Mc7"  >
<path style="stroke: none; stroke-width: 1; stroke-dasharray: none; stroke-linecap: butt; stroke-dashoffset: 0; stroke-linejoin: miter; stroke-miterlimit: 4; fill: rgb(77,128,147); fill-rule: nonzero; opacity: 1;" vector-effect="non-scaling-stroke"  transform=" translate(-4004.5, -2380)" d="M 3690 3555 L 3690 3410 L 3845 3410 L 4000 3410 L 4000 2385 L 4000 1360 L 3973 1360 C 3957 1359 3889 1358 3820 1357 L 3695 1355 L 3692 1207 L 3689 1059 L 3947 1062 C 4243 1065 4256 1069 4298 1150 L 4320 1195 L 4318 2397 C 4315 3593 4315 3599 4294 3626 C 4283 3641 4261 3663 4246 3674 C 4220 3694 4203 3695 3954 3698 L 3690 3701 L 3690 3555 z" stroke-linecap="round" />
</g>
		<g transform="matrix(0.1 0 0 -0.1 45 40.5)" id="VZulufyl6Q3b-Vg_vwB5l"  >
<path style="stroke: none; stroke-width: 1; stroke-dasharray: none; stroke-linecap: butt; stroke-dashoffset: 0; stroke-linejoin: miter; stroke-miterlimit: 4; fill: rgb(77,128,147); fill-rule: nonzero; opacity: 1;" vector-effect="non-scaling-stroke"  transform=" translate(-3010, -2155)" d="M 2520 2883 C 2520 2878 2590 2719 2676 2527 L 2833 2180 L 2656 1806 C 2559 1601 2480 1430 2480 1426 C 2480 1423 2557 1421 2651 1422 L 2823 1425 L 2913 1653 C 2962 1778 3006 1880 3010 1880 C 3014 1880 3057 1777 3105 1650 L 3192 1420 L 3366 1420 C 3462 1420 3540 1422 3540 1423 C 3540 1425 3461 1595 3365 1800 C 3269 2006 3190 2178 3190 2182 C 3190 2190 3493 2860 3507 2883 C 3509 2887 3437 2890 3346 2890 L 3182 2890 L 3099 2680 C 3054 2565 3014 2470 3010 2470 C 3006 2470 2967 2565 2924 2680 L 2845 2890 L 2683 2890 C 2593 2890 2520 2887 2520 2883 z" stroke-linecap="round" />
</g>
</g>
</g>
<g transform="matrix(1 0 0 1 112.8 235.2)" id="yP855rB53Wly6AlontO4T"  >
<path style="stroke: rgb(0,0,0); stroke-width: 1; stroke-dasharray: none; stroke-linecap: butt; stroke-dashoffset: 0; stroke-linejoin: miter; stroke-miterlimit: 4; fill: rgb(255,255,255); fill-opacity: 0; fill-rule: nonzero; opacity: 1;" vector-effect="non-scaling-stroke"  transform=" translate(0, 0)" d="M 0 0" stroke-linecap="round" />
</g>
</svg>