<svg viewBox="0 0 512 512" xmlns="http://www.w3.org/2000/svg"><path d="m256 32c-123.7 0-224 102.9-224 229.7 0 101.5 64.2 187.5 153.2 217.9 1.2.3 2.5.4 3.8.4 8.3 0 11.5-6.1 11.5-11.4 0-5.5-.2-19.9-.3-39.1-7.4 1.7-15 2.6-22.6 2.7-43.1 0-52.9-33.5-52.9-33.5-10.2-26.5-24.9-33.6-24.9-33.6-19.5-13.7-.1-14.1 1.4-14.1h.1c22.5 2 34.3 23.8 34.3 23.8 11.2 19.6 26.2 25.1 39.6 25.1 8.9-.2 17.6-2.2 25.6-6 2-14.8 7.8-24.9 14.2-30.7-49.7-5.8-102-25.5-102-113.5 0-25.1 8.7-45.6 23-61.6-2.3-5.8-10-29.2 2.2-60.8 1.6-.4 3.3-.6 5-.5 8.1 0 26.4 3.1 56.6 24.1 36.7-10.3 75.5-10.3 112.2 0 30.2-21 48.5-24.1 56.6-24.1 1.7-.1 3.4.1 5 .5 12.2 31.6 4.5 55 2.2 60.8 14.3 16.1 23 36.6 23 61.6 0 88.2-52.4 107.6-102.3 113.3 8 7.1 15.2 21.1 15.2 42.5 0 30.7-.3 55.5-.3 63 0 5.4 3.1 11.5 11.4 11.5 1.3 0 2.7-.1 4-.4 89.1-30.4 153.2-116.5 153.2-217.9 0-126.8-100.3-229.7-224-229.7z" fill="#4d8093"/></svg>