<svg viewBox="0 0 512 512" xmlns="http://www.w3.org/2000/svg"><path d="m494.1 281.6-25.2-78.1c-.1-.7-.3-1.4-.6-2.1l-50.5-156.9c-2.7-8.3-10.5-13.9-19.2-13.8-8.7 0-16.4 5.6-18.9 13.9l-48.1 149.5h-152l-48.3-149.5c-2.6-8.3-10.2-13.9-18.9-13.9h-.1c-8.7 0-16.5 5.7-19.1 14l-50.5 157c0 .1-.1.3-.2.4l-25.6 79.5c-3.9 11.9.3 25 10.4 32.5l221.4 162.4c4 2.9 9.4 2.9 13.4-.1l221.5-162.3c10.2-7.5 14.4-20.6 10.5-32.5m-331-64.5 61.7 191.8-148.2-191.8m209.7 191.8 59.2-183.8 2.5-8h86.5l-134 173.3m98.3-331.1 43.4 134.8h-86.8m-31.2 22.9-43 133.6-25.7 79.6-68.6-213.2m-74.6-157.7 43.5 134.8h-86.8m-28.3 101.5c-2.1-1.6-3-4.4-2.2-6.9l19-59 139.6 180.6m273.2-114.7-156.4 114.6.5-.7 139.1-179.9 19 59c.8 2.6 0 5.4-2.2 7" fill="#4d8093"/></svg>
