<?xml version="1.0" encoding="UTF-8" standalone="no"?>
<!DOCTYPE svg PUBLIC "-//W3C//DTD SVG 1.1//EN" "http://www.w3.org/Graphics/SVG/1.1/DTD/svg11.dtd">
<svg version="1.1" xmlns="http://www.w3.org/2000/svg" xmlns:xlink="http://www.w3.org/1999/xlink" preserveAspectRatio="xMidYMid meet" viewBox="0 0 550 550" width="550" height="550"><defs><path d="M357.8 0L357.86 0L357.92 0L357.99 0.01L358.05 0.01L358.11 0.01L358.18 0.01L358.24 0.02L358.3 0.02L358.36 0.03L358.43 0.03L358.49 0.04L358.55 0.04L358.61 0.05L358.68 0.05L358.74 0.06L358.8 0.07L358.86 0.07L358.93 0.08L358.99 0.09L359.05 0.1L359.11 0.11L359.17 0.12L359.23 0.13L359.3 0.14L359.36 0.15L359.42 0.16L359.48 0.17L359.54 0.18L359.6 0.19L359.66 0.2L359.72 0.21L359.79 0.23L359.85 0.24L359.91 0.25L359.97 0.26L360.03 0.28L360.09 0.29L360.15 0.31L360.16 0.31L360.18 0.31L360.19 0.32L360.21 0.32L360.22 0.33L360.24 0.33L360.25 0.34L360.27 0.34L360.28 0.35L360.29 0.35L360.31 0.36L360.32 0.36L360.35 0.37L360.37 0.38L360.41 0.39L360.44 0.4L360.48 0.42L360.49 0.42L360.52 0.43L360.54 0.44L360.55 0.44L360.57 0.45L360.58 0.45L360.59 0.46L360.61 0.46L360.62 0.47L360.64 0.47L360.65 0.47L360.67 0.48L360.68 0.48L360.7 0.49L360.71 0.49L360.73 0.5L360.78 0.51L360.84 0.53L360.89 0.55L360.95 0.56L361 0.58L361.06 0.6L361.11 0.62L361.17 0.64L361.22 0.66L361.28 0.68L361.33 0.7L361.38 0.72L361.44 0.74L361.49 0.76L361.55 0.78L361.6 0.8L361.65 0.82L361.71 0.84L361.76 0.87L361.81 0.89L361.87 0.91L361.92 0.93L361.97 0.96L362.03 0.98L362.08 1L362.13 1.03L362.18 1.05L362.24 1.08L362.29 1.1L362.34 1.13L362.39 1.15L362.44 1.18L362.5 1.2L362.55 1.23L362.6 1.26L362.65 1.28L362.7 1.31L362.75 1.34L362.8 1.36L362.85 1.39L362.91 1.42L362.96 1.45L363 1.47L363.03 1.49L363.05 1.5L363.07 1.51L363.09 1.52L363.11 1.53L363.14 1.55L363.16 1.56L363.18 1.57L363.19 1.58L363.21 1.59L363.23 1.6L363.25 1.61L363.26 1.62L363.28 1.63L363.3 1.64L363.32 1.65L363.33 1.67L363.35 1.68L363.37 1.69L363.39 1.7L363.4 1.71L363.42 1.72L363.44 1.73L363.46 1.74L363.47 1.75L363.49 1.76L363.51 1.78L363.52 1.79L363.54 1.8L363.56 1.81L363.62 1.85L363.68 1.89L363.73 1.93L363.79 1.97L363.85 2L363.91 2.04L363.96 2.08L364.02 2.12L364.08 2.17L364.13 2.21L364.19 2.25L364.25 2.29L364.3 2.33L364.36 2.37L364.41 2.42L364.47 2.46L364.53 2.5L364.58 2.55L364.63 2.59L364.69 2.64L364.74 2.68L364.8 2.73L364.85 2.77L364.9 2.82L364.96 2.87L365.01 2.91L365.06 2.96L365.11 3.01L365.16 3.06L365.21 3.1L365.27 3.15L365.32 3.2L365.37 3.25L365.42 3.3L365.47 3.35L365.51 3.4L365.56 3.46L365.61 3.51L365.66 3.56L365.71 3.61L365.71 3.62L365.72 3.63L365.72 3.63L365.73 3.63L365.73 3.64L365.74 3.64L365.74 3.65L365.77 3.66L365.77 3.67L365.78 3.67L365.79 3.68L365.79 3.69L471.83 124.82L471.96 124.97L472.09 125.12L472.21 125.28L472.33 125.43L472.44 125.58L472.55 125.74L472.66 125.9L472.76 126.06L472.87 126.22L472.96 126.39L473.06 126.55L473.15 126.72L473.23 126.89L473.32 127.06L473.4 127.23L473.48 127.4L473.55 127.58L473.62 127.75L473.69 127.93L473.76 128.1L473.82 128.28L473.88 128.46L473.93 128.64L473.98 128.82L474.03 129L474.08 129.19L474.12 129.37L474.16 129.55L474.19 129.74L474.23 129.92L474.26 130.11L474.29 130.3L474.31 130.48L474.33 130.67L474.35 130.86L474.36 131.05L474.38 131.24L474.38 131.43L474.39 131.62L474.39 131.81L474.4 131.84L474.4 131.87L474.41 131.9L474.41 131.93L474.43 132.05L474.43 132.11L474.44 132.14L474.44 132.17L474.45 132.2L474.45 132.23L474.45 132.26L474.46 132.29L474.46 132.32L474.46 132.35L474.47 132.38L474.47 132.41L474.47 132.44L474.48 132.47L474.48 132.5L474.48 132.53L474.49 132.56L474.49 132.59L474.49 132.62L474.49 132.65L474.5 132.68L474.5 132.71L474.5 132.74L474.5 132.77L474.5 132.8L474.5 132.83L474.51 132.86L474.51 132.89L474.51 132.92L474.51 132.95L474.51 132.98L474.51 133.01L474.51 196.73L487.72 196.73L488.99 196.76L490.24 196.83L491.49 196.96L492.71 197.14L493.93 197.36L495.12 197.63L496.3 197.94L497.46 198.3L498.6 198.71L499.71 199.15L500.81 199.64L501.88 200.17L502.93 200.74L503.95 201.35L504.95 202L505.92 202.68L506.86 203.4L507.77 204.15L508.66 204.94L509.51 205.76L510.33 206.61L511.12 207.5L511.87 208.41L512.59 209.35L513.28 210.32L513.92 211.32L514.53 212.34L515.1 213.39L515.63 214.46L516.12 215.56L516.57 216.68L516.97 217.81L517.33 218.97L517.65 220.15L517.92 221.35L518.14 222.56L518.31 223.79L518.44 225.03L518.52 226.29L518.54 227.56L518.54 387.87L518.52 389.14L518.44 390.39L518.31 391.64L518.14 392.87L517.92 394.08L517.65 395.27L517.33 396.45L516.97 397.61L516.57 398.75L516.12 399.86L515.63 400.96L515.1 402.03L514.53 403.08L513.92 404.1L513.28 405.1L512.59 406.07L511.87 407.01L511.12 407.93L510.33 408.81L509.51 409.66L508.66 410.48L507.78 411.27L506.86 412.02L505.92 412.74L504.95 413.43L503.95 414.07L502.93 414.68L501.88 415.25L500.81 415.78L499.71 416.27L498.6 416.72L497.46 417.12L496.3 417.48L495.12 417.8L493.93 418.07L492.72 418.29L491.49 418.46L490.24 418.59L488.99 418.67L487.72 418.69L474.51 418.69L474.51 528.43L474.49 529.32L474.44 530.2L474.35 531.07L474.23 531.92L474.07 532.77L473.88 533.61L473.66 534.43L473.41 535.24L473.13 536.04L472.81 536.82L472.47 537.58L472.1 538.33L471.7 539.07L471.27 539.78L470.82 540.48L470.34 541.16L469.84 541.82L469.31 542.46L468.76 543.08L468.18 543.67L467.59 544.25L466.97 544.8L466.33 545.33L465.67 545.83L464.99 546.31L464.29 546.76L463.58 547.19L462.84 547.59L462.09 547.96L461.33 548.3L460.55 548.62L459.75 548.9L458.94 549.15L458.12 549.37L457.28 549.56L456.43 549.72L455.58 549.84L454.71 549.93L453.83 549.98L452.94 550L97.06 550L96.17 549.98L95.29 549.93L94.42 549.84L93.56 549.72L92.72 549.56L91.88 549.37L91.06 549.15L90.25 548.9L89.45 548.61L88.67 548.3L87.9 547.96L87.15 547.59L86.42 547.19L85.7 546.76L85.01 546.31L84.33 545.83L83.67 545.33L83.03 544.8L82.41 544.25L81.81 543.67L81.24 543.08L80.69 542.46L80.16 541.82L79.66 541.16L79.18 540.48L78.73 539.78L78.3 539.07L77.9 538.33L77.53 537.58L77.19 536.82L76.87 536.04L76.59 535.24L76.34 534.43L76.12 533.61L75.93 532.77L75.77 531.92L75.65 531.07L75.56 530.2L75.51 529.32L75.49 528.43L75.49 418.69L62.29 418.69L61.02 418.67L59.76 418.59L58.51 418.46L57.29 418.29L56.07 418.07L54.88 417.8L53.7 417.48L52.54 417.12L51.4 416.72L50.29 416.27L49.19 415.78L48.12 415.25L47.07 414.68L46.05 414.07L45.05 413.42L44.08 412.74L43.14 412.02L42.22 411.27L41.34 410.48L40.49 409.66L39.67 408.81L38.88 407.92L38.13 407.01L37.41 406.07L36.72 405.1L36.08 404.1L35.47 403.07L34.9 402.03L34.37 400.95L33.88 399.86L33.43 398.74L33.03 397.6L32.67 396.44L32.35 395.27L32.08 394.07L31.86 392.86L31.69 391.63L31.56 390.39L31.48 389.13L31.46 387.86L31.46 227.55L31.48 226.28L31.56 225.02L31.69 223.78L31.86 222.55L32.08 221.34L32.35 220.14L32.67 218.97L33.03 217.81L33.43 216.67L33.88 215.55L34.37 214.46L34.9 213.39L35.47 212.34L36.08 211.31L36.72 210.32L37.41 209.35L38.13 208.4L38.88 207.49L39.67 206.61L40.49 205.75L41.34 204.93L42.22 204.15L43.14 203.39L44.08 202.67L45.05 201.99L46.05 201.35L47.07 200.74L48.12 200.17L49.19 199.64L50.29 199.15L51.4 198.7L52.54 198.3L53.7 197.94L54.88 197.62L56.07 197.35L57.29 197.13L58.51 196.96L59.76 196.83L61.02 196.75L62.29 196.73L75.49 196.73L75.49 21.57L75.51 20.68L75.56 19.8L75.65 18.93L75.77 18.08L75.93 17.23L76.12 16.39L76.34 15.57L76.59 14.76L76.87 13.96L77.19 13.18L77.53 12.42L77.9 11.67L78.3 10.93L78.72 10.22L79.18 9.52L79.65 8.84L80.16 8.18L80.69 7.54L81.24 6.92L81.81 6.33L82.41 5.75L83.03 5.2L83.67 4.67L84.33 4.17L85 3.69L85.7 3.24L86.42 2.81L87.15 2.41L87.9 2.04L88.67 1.7L89.45 1.38L90.25 1.1L91.06 0.85L91.88 0.63L92.72 0.44L93.56 0.28L94.42 0.16L95.29 0.07L96.17 0.02L97.06 0L357.67 0L357.74 0L357.8 0ZM97.06 522.59L452.94 522.59L452.94 418.69L97.06 418.69L97.06 522.59ZM351.99 282.54L351.7 283.56L351.41 284.58L351.12 285.61L350.83 286.66L350.54 287.71L350.24 288.76L349.95 289.83L349.66 290.9L349.37 291.97L349.08 293.06L348.79 294.14L348.5 295.24L348.21 296.33L347.92 297.43L347.63 298.54L347.34 299.64L347.05 300.75L346.76 301.87L346.48 302.98L346.19 304.1L345.91 305.21L345.62 306.33L345.34 307.45L345.06 308.56L344.78 309.68L344.5 310.8L344.22 311.91L343.95 313.02L343.67 314.13L343.4 315.24L343.13 316.34L342.86 317.44L342.59 318.54L342.33 319.63L342.06 320.71L341.8 321.8L341.54 322.87L341.29 323.94L341.03 325L340.78 326.06L340.26 326.06L340.06 324.99L339.86 323.92L339.65 322.85L339.44 321.77L339.23 320.69L339.01 319.61L338.79 318.53L338.57 317.44L338.34 316.35L338.11 315.26L337.88 314.17L337.64 313.08L337.4 311.99L337.16 310.89L336.92 309.8L336.67 308.7L336.42 307.6L336.17 306.51L335.92 305.41L335.66 304.31L335.41 303.22L335.15 302.12L334.89 301.03L334.63 299.93L334.36 298.84L334.1 297.75L333.83 296.66L333.56 295.57L333.29 294.48L333.02 293.4L332.75 292.32L332.48 291.24L332.21 290.16L331.93 289.09L331.66 288.01L331.38 286.95L331.11 285.88L330.83 284.82L330.55 283.76L330.28 282.71L318.73 242.25L283.2 242.25L275.68 363.46L300.35 363.46L302.46 317.42L302.53 316.28L302.59 315.13L302.65 313.96L302.71 312.79L302.77 311.6L302.83 310.4L302.89 309.19L302.95 307.97L303 306.75L303.06 305.51L303.11 304.27L303.17 303.02L303.22 301.76L303.27 300.49L303.32 299.22L303.37 297.95L303.42 296.67L303.47 295.38L303.52 294.1L303.57 292.81L303.62 291.51L303.67 290.22L303.72 288.92L303.77 287.63L303.82 286.33L303.86 285.03L303.91 283.74L303.96 282.44L304.01 281.15L304.06 279.86L304.11 278.58L304.16 277.3L304.2 276.02L304.25 274.75L304.3 273.48L304.35 272.22L304.41 270.96L304.46 269.71L304.51 268.47L304.56 267.24L304.91 267.24L305.12 268.43L305.34 269.62L305.56 270.82L305.78 272.03L306.01 273.23L306.25 274.44L306.49 275.66L306.73 276.87L306.97 278.09L307.22 279.31L307.47 280.53L307.72 281.75L307.98 282.97L308.24 284.2L308.5 285.42L308.77 286.64L309.04 287.86L309.31 289.07L309.58 290.29L309.86 291.5L310.13 292.71L310.41 293.91L310.69 295.12L310.97 296.31L311.26 297.51L311.54 298.69L311.83 299.88L312.11 301.05L312.4 302.22L312.69 303.39L312.98 304.54L313.27 305.69L313.56 306.83L313.85 307.96L314.14 309.08L314.43 310.2L314.72 311.3L315.01 312.39L315.3 313.47L315.59 314.54L328.19 361.48L349.01 361.48L363.35 314.18L363.69 313.11L364.03 312.03L364.38 310.93L364.72 309.83L365.07 308.72L365.42 307.6L365.76 306.46L366.11 305.33L366.46 304.18L366.81 303.02L367.15 301.86L367.5 300.7L367.85 299.52L368.19 298.34L368.54 297.16L368.88 295.97L369.23 294.78L369.57 293.58L369.91 292.38L370.25 291.18L370.59 289.97L370.92 288.76L371.25 287.56L371.59 286.35L371.92 285.14L372.24 283.93L372.57 282.72L372.89 281.51L373.21 280.3L373.52 279.09L373.84 277.89L374.15 276.69L374.45 275.49L374.76 274.3L375.06 273.11L375.35 271.92L375.64 270.74L375.93 269.57L376.21 268.4L376.49 267.23L377.01 267.23L377.01 268.56L377.01 269.88L377.02 271.2L377.02 272.52L377.03 273.84L377.04 275.16L377.05 276.47L377.07 277.79L377.08 279.1L377.1 280.41L377.12 281.71L377.14 283.02L377.16 284.32L377.18 285.61L377.2 286.9L377.23 288.19L377.25 289.47L377.28 290.75L377.31 292.03L377.34 293.29L377.37 294.55L377.4 295.81L377.43 297.06L377.46 298.3L377.5 299.54L377.53 300.77L377.57 301.99L377.6 303.2L377.64 304.41L377.67 305.6L377.71 306.79L377.75 307.97L377.79 309.14L377.83 310.3L377.87 311.45L377.9 312.6L377.94 313.73L377.98 314.85L378.02 315.96L378.06 317.06L379.81 363.45L405.88 363.45L399.41 242.24L364.58 242.24L351.99 282.54ZM174.18 265.26L205.85 265.26L205.85 363.45L232.63 363.45L232.63 265.26L264.82 265.26L264.82 242.23L174.18 242.23L174.18 265.26ZM426.38 363.45L500.06 363.45L500.06 340.43L453.15 340.43L453.15 242.23L426.38 242.23L426.38 363.45ZM62.51 363.45L89.27 363.45L89.27 312.73L133.21 312.73L133.21 363.45L159.81 363.45L159.81 242.23L133.21 242.23L133.21 288.82L89.27 288.82L89.27 242.23L62.51 242.23L62.51 363.45ZM97.06 196.74L452.94 196.74L452.94 142.71L357.67 142.71L357.23 142.7L356.79 142.67L356.35 142.63L355.92 142.57L355.5 142.49L355.08 142.39L354.67 142.28L354.27 142.16L353.87 142.02L353.48 141.86L353.09 141.69L352.72 141.5L352.35 141.3L351.99 141.09L351.64 140.87L351.31 140.63L350.98 140.38L350.66 140.11L350.35 139.84L350.05 139.55L349.76 139.25L349.49 138.94L349.22 138.62L348.97 138.29L348.73 137.95L348.5 137.6L348.29 137.25L348.09 136.88L347.91 136.5L347.74 136.12L347.58 135.73L347.44 135.33L347.31 134.93L347.2 134.52L347.11 134.1L347.03 133.67L346.97 133.24L346.92 132.81L346.9 132.37L346.89 131.92L346.89 21.57L97.06 21.57L97.06 196.74Z" id="c6ceRm0Lu2"></path></defs><g><g><g><use xlink:href="#c6ceRm0Lu2" opacity="1" fill="#4d8093" fill-opacity="1"></use><g><use xlink:href="#c6ceRm0Lu2" opacity="1" fill-opacity="0" stroke="#000000" stroke-width="1" stroke-opacity="0"></use></g></g></g></g></svg>