<svg xmlns="http://www.w3.org/2000/svg" viewBox="0 0 512 512"><path id="svg_1" d="m88,48c13.3,0 24,10.75 24,24l0,48c0,13.3 -10.7,24 -24,24l-48,0c-13.25,0 -24,-10.7 -24,-24l0,-48c0,-13.25 10.75,-24 24,-24l48,0zm392,16c17.7,0 32,14.33 32,32c0,17.7 -14.3,32 -32,32l-307.99999,0c-17.7,0 -32,-14.3 -32,-32c0,-17.67 14.3,-32 32,-32l307.99999,0zm0,160c17.7,0 32,14.3 32,32c0,17.7 -14.3,32 -32,32l-307.99999,0c-17.7,0 -32,-14.3 -32,-32c0,-17.7 14.3,-32 32,-32l307.99999,0zm0,160c17.7,0 32,14.3 32,32c0,17.7 -14.3,32 -32,32l-307.99999,0c-17.7,0 -32,-14.3 -32,-32c0,-17.7 14.3,-32 32,-32l307.99999,0zm-464,-152c0,-13.3 10.75,-24 24,-24l48,0c13.3,0 24,10.7 24,24l0,48c0,13.3 -10.7,24 -24,24l-48,0c-13.25,0 -24,-10.7 -24,-24l0,-48zm72,136c13.3,0 24,10.7 24,24l0,48c0,13.3 -10.7,24 -24,24l-48,0c-13.25,0 -24,-10.7 -24,-24l0,-48c0,-13.3 10.75,-24 24,-24l48,0z"/></svg>