<svg xmlns="http://www.w3.org/2000/svg" viewBox="0 0 512 512">
 <g>
  <path id="svg_1" d="m88,48c13.3,0 24,10.75 24,24l0,48c0,13.3 -10.7,24 -24,24l-48,0c-13.25,0 -24,-10.7 -24,-24l0,-48c0,-13.25 10.75,-24 24,-24l48,0zm392,16c17.7,0 32,14.33 32,32c0,17.7 -14.3,32 -32,32l-311.99994,-0.66667c-17.7,0 -32,-14.3 -32,-32c0,-17.67 14.3,-32 32,-32l311.99994,0.66667zm0,160c17.7,0 32,14.3 32,32c0,17.7 -14.3,32 -32,32l-188.33324,0c-17.7,0 -32,-14.3 -32,-32c0,-17.7 14.3,-32 32,-32l188.33324,0zm0,160c17.7,0 32,14.3 32,32c0,17.7 -14.3,32 -32,32l-66.66718,0c-17.7,0 -32,-14.3 -32,-32c0,-17.7 14.3,-32 32,-32l66.66718,0zm-341.66663,-151.33333c0,-13.3 10.75,-24 24,-24l48,0c13.3,0 24,10.7 24,24l0,48c0,13.3 -10.7,24 -24,24l-48,0c-13.25,0 -24,-10.7 -24,-24l0,-48zm192.33273,135.33333c13.3,0 24,10.7 24,24l0,48c0,13.3 -10.7,24 -24,24l-48,0c-13.25,0 -24,-10.7 -24,-24l0,-48c0,-13.3 10.75,-24 24,-24l48,0z"/>
  <line stroke="#000000" stroke-width="16" id="svg_9" y2="256.99882" x2="155.33239" y1="256.99882" x1="69.99925" fill="none"/>
  <line stroke="#000000" id="svg_11" y2="265.0955" x2="63.99926" y1="142.99908" x1="63.99926" stroke-width="16" fill="none"/>
  <line stroke="#000000" stroke-width="16" id="svg_12" y2="418.33177" x2="261.99881" y1="418.33177" x1="189.33231" fill="none"/>
  <line stroke="#000000" id="svg_13" y2="426.42846" x2="185.99898" y1="304.33205" x1="185.99898" stroke-width="16" fill="none"/>
 </g>
</svg>