<?xml version="1.0" encoding="UTF-8" standalone="no"?>
<!DOCTYPE svg PUBLIC "-//W3C//DTD SVG 1.1//EN" "http://www.w3.org/Graphics/SVG/1.1/DTD/svg11.dtd">
<svg version="1.1" xmlns="http://www.w3.org/2000/svg" xmlns:xlink="http://www.w3.org/1999/xlink" preserveAspectRatio="xMidYMid meet" viewBox="0 0 550 550" width="550" height="550"><defs><path d="M131.72 258.17C124.31 258.17 119.3 258.88 116.67 259.59C116.67 264.35 116.67 302.4 116.67 307.15C119.78 307.86 123.6 308.1 128.84 308.1C148.2 308.1 160.15 298.31 160.15 281.81C160.15 267 149.86 258.17 131.72 258.17Z" id="b6qPBrhw4D"></path><path d="M255.98 260.08C255.98 270.61 255.98 354.91 255.98 365.44C259.09 366.17 264.11 366.17 268.65 366.17C301.62 366.4 323.13 348.25 323.13 309.78C323.37 276.32 303.77 258.64 272.48 258.64C264.35 258.64 259.1 259.36 255.98 260.08Z" id="aS0rJ6Xpw"></path><path d="M357.8 0L357.86 0L357.92 0L357.99 0.01L358.05 0.01L358.11 0.01L358.18 0.01L358.24 0.02L358.3 0.02L358.36 0.03L358.43 0.03L358.49 0.04L358.55 0.04L358.61 0.05L358.68 0.05L358.74 0.06L358.8 0.07L358.86 0.08L358.93 0.08L358.99 0.09L359.05 0.1L359.11 0.11L359.17 0.12L359.23 0.13L359.3 0.14L359.36 0.15L359.42 0.16L359.48 0.17L359.54 0.18L359.6 0.19L359.66 0.2L359.72 0.22L359.79 0.23L359.85 0.24L359.91 0.25L359.97 0.27L360.03 0.28L360.09 0.29L360.15 0.31L360.16 0.31L360.18 0.32L360.19 0.32L360.21 0.32L360.22 0.33L360.24 0.33L360.25 0.34L360.27 0.34L360.28 0.35L360.29 0.35L360.31 0.36L360.32 0.36L360.34 0.37L360.35 0.37L360.37 0.38L360.39 0.39L360.41 0.39L360.44 0.4L360.47 0.41L360.49 0.42L360.52 0.43L360.54 0.44L360.57 0.45L360.58 0.45L360.59 0.46L360.61 0.46L360.62 0.47L360.64 0.47L360.65 0.48L360.67 0.48L360.68 0.49L360.7 0.49L360.71 0.49L360.73 0.5L360.78 0.51L360.84 0.53L360.89 0.55L360.95 0.57L361 0.58L361.06 0.6L361.11 0.62L361.17 0.64L361.22 0.66L361.28 0.68L361.33 0.7L361.38 0.72L361.44 0.74L361.49 0.76L361.55 0.78L361.6 0.8L361.65 0.82L361.71 0.85L361.76 0.87L361.81 0.89L361.87 0.91L361.92 0.94L361.97 0.96L362.03 0.98L362.08 1.01L362.13 1.03L362.18 1.05L362.24 1.08L362.29 1.1L362.34 1.13L362.39 1.15L362.44 1.18L362.5 1.21L362.55 1.23L362.6 1.26L362.65 1.28L362.7 1.31L362.75 1.34L362.8 1.37L362.85 1.39L362.87 1.4L362.93 1.43L362.94 1.44L362.98 1.46L363 1.47L363.03 1.49L363.07 1.51L363.11 1.53L363.12 1.54L363.14 1.55L363.18 1.57L363.19 1.58L363.21 1.59L363.23 1.6L363.25 1.61L363.26 1.63L363.28 1.64L363.3 1.65L363.32 1.66L363.33 1.67L363.35 1.68L363.37 1.69L363.39 1.7L363.4 1.71L363.42 1.72L363.44 1.73L363.46 1.74L363.47 1.75L363.49 1.77L363.51 1.78L363.52 1.79L363.54 1.8L363.56 1.81L363.62 1.85L363.68 1.89L363.73 1.93L363.79 1.97L363.85 2.01L363.91 2.05L363.96 2.09L364.02 2.13L364.08 2.17L364.13 2.21L364.19 2.25L364.25 2.29L364.3 2.33L364.36 2.38L364.41 2.42L364.47 2.46L364.53 2.51L364.58 2.55L364.63 2.59L364.69 2.64L364.74 2.68L364.8 2.73L364.85 2.77L364.9 2.82L364.96 2.87L365.01 2.91L365.06 2.96L365.11 3.01L365.16 3.06L365.21 3.1L365.27 3.15L365.32 3.2L365.37 3.25L365.42 3.3L365.47 3.35L365.51 3.4L365.56 3.46L365.61 3.51L365.66 3.56L365.71 3.61L365.71 3.62L365.71 3.62L365.71 3.62L365.72 3.62L365.72 3.63L365.73 3.64L365.73 3.64L365.74 3.65L365.74 3.65L365.75 3.65L365.76 3.67L365.77 3.67L365.78 3.68L365.79 3.68L365.79 3.69L471.83 124.82L471.96 124.97L472.09 125.12L472.21 125.28L472.33 125.43L472.44 125.59L472.55 125.74L472.66 125.9L472.76 126.06L472.87 126.23L472.96 126.39L473.06 126.56L473.15 126.72L473.23 126.89L473.32 127.06L473.4 127.23L473.48 127.4L473.55 127.58L473.62 127.75L473.69 127.93L473.76 128.11L473.82 128.28L473.88 128.46L473.93 128.64L473.98 128.82L474.03 129.01L474.08 129.19L474.12 129.37L474.16 129.56L474.19 129.74L474.23 129.93L474.26 130.11L474.29 130.3L474.31 130.49L474.33 130.68L474.35 130.86L474.36 131.05L474.38 131.24L474.38 131.43L474.39 131.62L474.39 131.81L474.4 131.84L474.41 131.9L474.41 131.93L474.42 131.99L474.43 132.05L474.43 132.08L474.43 132.11L474.44 132.14L474.44 132.17L474.45 132.2L474.45 132.23L474.45 132.26L474.46 132.29L474.46 132.32L474.46 132.35L474.47 132.38L474.47 132.41L474.47 132.44L474.48 132.47L474.48 132.5L474.48 132.53L474.49 132.56L474.49 132.59L474.49 132.62L474.49 132.65L474.5 132.68L474.5 132.71L474.5 132.74L474.5 132.77L474.5 132.8L474.5 132.83L474.51 132.86L474.51 132.89L474.51 132.92L474.51 132.95L474.51 132.98L474.51 133.01L474.51 196.73L487.72 196.73L488.99 196.76L490.24 196.83L491.49 196.96L492.71 197.14L493.93 197.36L495.12 197.63L496.3 197.94L497.46 198.3L498.6 198.71L499.71 199.15L500.81 199.64L501.88 200.17L502.93 200.74L503.95 201.35L504.95 202L505.92 202.68L506.86 203.4L507.77 204.15L508.66 204.94L509.51 205.76L510.33 206.61L511.12 207.5L511.87 208.41L512.59 209.35L513.28 210.32L513.92 211.32L514.53 212.34L515.1 213.39L515.63 214.46L516.12 215.56L516.57 216.68L516.97 217.82L517.33 218.97L517.65 220.15L517.92 221.35L518.14 222.56L518.31 223.79L518.44 225.03L518.52 226.29L518.54 227.56L518.54 387.87L518.52 389.14L518.44 390.39L518.31 391.64L518.14 392.87L517.92 394.08L517.65 395.27L517.33 396.45L516.97 397.61L516.57 398.75L516.12 399.86L515.63 400.96L515.1 402.03L514.53 403.08L513.92 404.1L513.28 405.1L512.59 406.07L511.87 407.01L511.12 407.93L510.33 408.81L509.51 409.66L508.66 410.48L507.78 411.27L506.86 412.02L505.92 412.74L504.95 413.43L503.95 414.07L502.93 414.68L501.88 415.25L500.81 415.78L499.71 416.27L498.6 416.72L497.46 417.12L496.3 417.48L495.12 417.8L493.93 418.07L492.72 418.29L491.49 418.46L490.24 418.59L488.99 418.67L487.72 418.69L474.51 418.69L474.51 528.43L474.49 529.32L474.44 530.2L474.35 531.07L474.23 531.92L474.07 532.77L473.88 533.61L473.66 534.43L473.41 535.24L473.13 536.04L472.81 536.82L472.47 537.58L472.1 538.33L471.7 539.07L471.27 539.78L470.82 540.48L470.34 541.16L469.84 541.82L469.31 542.46L468.76 543.08L468.18 543.67L467.59 544.25L466.97 544.8L466.33 545.33L465.67 545.83L464.99 546.31L464.29 546.76L463.58 547.19L462.84 547.59L462.09 547.96L461.33 548.3L460.55 548.62L459.75 548.9L458.94 549.15L458.12 549.37L457.28 549.56L456.43 549.72L455.58 549.84L454.71 549.93L453.83 549.98L452.94 550L97.06 550L96.17 549.98L95.29 549.93L94.42 549.84L93.56 549.72L92.72 549.56L91.88 549.37L91.06 549.15L90.25 548.9L89.45 548.61L88.67 548.3L87.9 547.96L87.15 547.59L86.42 547.19L85.7 546.76L85.01 546.31L84.33 545.83L83.67 545.33L83.03 544.8L82.41 544.25L81.81 543.67L81.24 543.08L80.69 542.46L80.16 541.82L79.66 541.16L79.18 540.48L78.73 539.78L78.3 539.07L77.9 538.33L77.53 537.58L77.19 536.82L76.87 536.04L76.59 535.24L76.34 534.43L76.12 533.61L75.93 532.77L75.77 531.92L75.65 531.07L75.56 530.2L75.51 529.32L75.49 528.43L75.49 418.69L62.29 418.69L61.02 418.67L59.76 418.59L58.51 418.46L57.29 418.29L56.07 418.07L54.88 417.8L53.7 417.48L52.54 417.12L51.4 416.72L50.29 416.27L49.19 415.78L48.12 415.25L47.07 414.68L46.05 414.07L45.05 413.43L44.08 412.74L43.14 412.02L42.22 411.27L41.34 410.48L40.49 409.66L39.67 408.81L38.88 407.93L38.13 407.01L37.41 406.07L36.72 405.1L36.08 404.1L35.47 403.08L34.9 402.03L34.37 400.96L33.88 399.86L33.43 398.75L33.03 397.61L32.67 396.45L32.35 395.27L32.08 394.08L31.86 392.87L31.69 391.64L31.56 390.39L31.48 389.14L31.46 387.87L31.46 227.56L31.48 226.28L31.56 225.03L31.69 223.78L31.86 222.55L32.08 221.34L32.35 220.15L32.67 218.97L33.03 217.81L33.43 216.67L33.88 215.55L34.37 214.46L34.9 213.39L35.47 212.34L36.08 211.31L36.72 210.32L37.41 209.35L38.13 208.4L38.88 207.49L39.67 206.61L40.49 205.76L41.34 204.93L42.22 204.15L43.14 203.39L44.08 202.67L45.05 201.99L46.05 201.35L47.07 200.74L48.12 200.17L49.19 199.64L50.29 199.15L51.4 198.7L52.54 198.3L53.7 197.94L54.88 197.62L56.07 197.35L57.29 197.13L58.51 196.96L59.76 196.83L61.02 196.75L62.29 196.73L75.49 196.73L75.49 21.57L75.51 20.68L75.56 19.8L75.65 18.93L75.77 18.08L75.93 17.23L76.12 16.39L76.34 15.57L76.59 14.76L76.87 13.96L77.19 13.18L77.53 12.42L77.9 11.67L78.3 10.93L78.72 10.22L79.18 9.52L79.65 8.84L80.16 8.18L80.69 7.54L81.24 6.92L81.81 6.33L82.41 5.75L83.03 5.2L83.67 4.67L84.33 4.17L85 3.69L85.7 3.24L86.42 2.81L87.15 2.41L87.9 2.04L88.67 1.7L89.45 1.38L90.25 1.1L91.06 0.85L91.88 0.63L92.72 0.44L93.56 0.28L94.42 0.16L95.29 0.07L96.17 0.02L97.06 0L357.67 0L357.74 0L357.8 0ZM97.06 522.59L452.94 522.59L452.94 418.69L97.06 418.69L97.06 522.59ZM265.9 230.69L264.53 230.7L263.17 230.72L261.81 230.74L260.45 230.76L259.1 230.79L257.75 230.82L256.41 230.86L255.08 230.9L253.75 230.95L252.44 231L251.12 231.05L249.82 231.11L248.52 231.17L247.23 231.24L245.95 231.31L244.68 231.39L243.41 231.47L242.16 231.55L240.91 231.64L239.67 231.73L238.45 231.82L237.23 231.92L236.03 232.02L234.83 232.13L233.65 232.24L232.48 232.36L231.32 232.47L230.17 232.6L229.04 232.72L227.91 232.85L226.8 232.99L225.71 233.12L224.62 233.26L223.56 233.41L222.5 233.56L221.46 233.71L220.43 233.87L219.42 234.02L219.42 392.21L220.11 392.3L220.82 392.39L221.54 392.48L222.28 392.57L223.03 392.65L223.81 392.74L224.6 392.83L225.4 392.91L226.22 393L227.06 393.08L227.92 393.17L228.79 393.25L229.69 393.33L230.59 393.41L231.52 393.49L232.47 393.56L233.43 393.64L234.41 393.71L235.41 393.78L236.42 393.85L237.46 393.91L238.51 393.98L239.59 394.04L240.68 394.1L241.79 394.15L242.91 394.21L244.06 394.26L245.23 394.31L246.41 394.35L247.62 394.39L248.85 394.43L250.09 394.46L251.35 394.49L252.64 394.52L253.94 394.54L255.27 394.56L256.61 394.58L257.97 394.59L259.36 394.59L260.76 394.6L263.12 394.58L265.45 394.55L267.76 394.48L270.05 394.39L272.31 394.28L274.56 394.14L276.77 393.98L278.97 393.79L281.14 393.57L283.29 393.33L285.41 393.06L287.51 392.77L289.58 392.45L291.63 392.11L293.66 391.74L295.65 391.34L297.62 390.92L299.57 390.47L301.49 389.99L303.38 389.49L305.24 388.96L307.07 388.41L308.88 387.83L310.66 387.22L312.41 386.58L314.13 385.92L315.83 385.23L317.49 384.52L319.12 383.78L320.73 383.01L322.3 382.21L323.84 381.39L325.36 380.54L326.84 379.66L328.29 378.75L329.7 377.82L331.09 376.86L332.44 375.87L333.76 374.85L335.05 373.81L336.21 372.81L337.35 371.78L338.47 370.72L339.58 369.62L340.67 368.5L341.74 367.34L342.78 366.16L343.81 364.94L344.81 363.69L345.8 362.41L346.76 361.09L347.7 359.75L348.61 358.37L349.5 356.96L350.36 355.52L351.2 354.05L352.01 352.54L352.79 351L353.55 349.43L354.27 347.82L354.97 346.19L355.64 344.51L356.28 342.81L356.88 341.07L357.46 339.3L358 337.49L358.51 335.65L358.99 333.78L359.43 331.87L359.83 329.92L360.21 327.95L360.54 325.94L360.84 323.89L361.1 321.81L361.32 319.69L361.5 317.54L361.65 315.35L361.75 313.13L361.81 310.87L361.83 308.57L361.81 306.46L361.75 304.37L361.66 302.32L361.52 300.3L361.35 298.31L361.14 296.35L360.89 294.43L360.6 292.54L360.28 290.67L359.93 288.84L359.54 287.04L359.11 285.27L358.65 283.54L358.15 281.83L357.62 280.15L357.06 278.51L356.46 276.89L355.84 275.31L355.18 273.75L354.48 272.23L353.76 270.73L353.01 269.27L352.22 267.83L351.41 266.43L350.56 265.05L349.69 263.7L348.78 262.39L347.85 261.1L346.89 259.84L345.91 258.61L344.89 257.41L343.85 256.24L342.78 255.09L341.69 253.98L340.57 252.89L339.42 251.84L338.25 250.81L337.06 249.8L335.84 248.83L334.6 247.88L333.42 247.02L332.23 246.18L331.03 245.36L329.8 244.56L328.56 243.79L327.29 243.03L326.01 242.31L324.71 241.6L323.38 240.92L322.04 240.26L320.67 239.62L319.28 239.01L317.86 238.42L316.43 237.85L314.96 237.3L313.48 236.77L311.96 236.27L310.42 235.79L308.86 235.33L307.26 234.9L305.64 234.48L303.99 234.09L302.31 233.72L300.6 233.37L298.86 233.04L297.08 232.73L295.28 232.45L293.44 232.19L291.57 231.95L289.67 231.73L287.73 231.53L285.76 231.35L283.75 231.19L281.71 231.06L279.63 230.94L277.51 230.85L275.35 230.78L273.16 230.72L270.93 230.69L268.65 230.68L267.28 230.69L265.9 230.69ZM126.52 230.69L124.92 230.71L123.33 230.73L121.77 230.75L120.24 230.78L118.72 230.81L117.23 230.85L115.76 230.89L114.32 230.94L112.9 230.99L111.5 231.05L110.12 231.11L108.76 231.17L107.43 231.24L106.11 231.31L104.82 231.39L103.55 231.47L102.3 231.55L101.07 231.64L99.86 231.73L98.67 231.83L97.51 231.93L96.36 232.03L95.23 232.13L94.12 232.24L93.03 232.35L91.97 232.46L90.92 232.58L89.88 232.7L88.87 232.82L87.88 232.95L86.9 233.07L85.95 233.2L85.01 233.33L84.09 233.47L83.19 233.6L82.3 233.74L81.43 233.88L80.58 234.02L80.58 392.93L116.66 392.93L116.66 335.34L116.91 335.38L117.17 335.41L117.43 335.45L117.69 335.48L117.96 335.51L118.22 335.54L118.5 335.57L118.77 335.6L119.05 335.63L119.34 335.66L119.62 335.69L119.91 335.71L120.2 335.74L120.5 335.76L120.8 335.78L121.1 335.81L121.4 335.83L121.71 335.85L122.02 335.87L122.33 335.89L122.64 335.9L122.96 335.92L123.28 335.94L123.61 335.95L123.93 335.96L124.26 335.98L124.59 335.99L124.92 336L125.26 336.01L125.59 336.02L125.93 336.03L126.27 336.04L126.62 336.04L126.96 336.05L127.31 336.06L127.66 336.06L128.01 336.06L128.37 336.06L128.72 336.07L129.08 336.07L130.69 336.06L132.28 336.03L133.86 335.98L135.43 335.91L136.99 335.82L138.54 335.71L140.07 335.58L141.59 335.43L143.09 335.25L144.58 335.06L146.06 334.85L147.52 334.61L148.97 334.36L150.4 334.08L151.81 333.78L153.21 333.47L154.6 333.12L155.96 332.76L157.32 332.38L158.65 331.97L159.97 331.54L161.27 331.09L162.55 330.62L163.82 330.13L165.06 329.61L166.29 329.07L167.5 328.51L168.69 327.93L169.86 327.32L171.02 326.69L172.15 326.03L173.26 325.36L174.35 324.66L175.42 323.93L176.48 323.19L177.51 322.42L178.51 321.62L179.5 320.8L180.47 319.96L181.41 319.1L182.12 318.41L182.81 317.7L183.49 316.98L184.15 316.25L184.79 315.49L185.42 314.73L186.03 313.95L186.62 313.15L187.2 312.34L187.76 311.51L188.3 310.67L188.83 309.82L189.33 308.95L189.82 308.07L190.3 307.17L190.75 306.26L191.19 305.34L191.61 304.4L192.01 303.46L192.4 302.49L192.77 301.52L193.12 300.53L193.45 299.54L193.76 298.52L194.05 297.5L194.33 296.47L194.59 295.42L194.83 294.37L195.05 293.3L195.25 292.22L195.43 291.13L195.59 290.03L195.74 288.92L195.87 287.8L195.97 286.67L196.06 285.52L196.13 284.37L196.18 283.21L196.21 282.04L196.22 280.87L196.2 279.69L196.16 278.52L196.1 277.36L196.01 276.21L195.9 275.07L195.76 273.94L195.6 272.82L195.42 271.71L195.21 270.62L194.98 269.53L194.72 268.46L194.45 267.39L194.15 266.34L193.83 265.31L193.49 264.28L193.13 263.27L192.74 262.27L192.34 261.29L191.92 260.32L191.48 259.36L191.01 258.42L190.53 257.49L190.03 256.58L189.52 255.68L188.98 254.8L188.43 253.93L187.86 253.08L187.27 252.24L186.67 251.43L186.05 250.62L185.41 249.84L184.76 249.07L184.09 248.32L183.41 247.59L182.72 246.88L182 246.18L181.28 245.51L180.54 244.85L179.79 244.21L179.03 243.59L178.21 242.95L177.37 242.33L176.52 241.73L175.64 241.14L174.75 240.57L173.83 240.01L172.89 239.47L171.94 238.94L170.96 238.44L169.96 237.94L168.94 237.47L167.9 237.01L166.84 236.56L165.76 236.14L164.65 235.73L163.53 235.33L162.38 234.95L161.21 234.59L160.02 234.24L158.81 233.91L157.57 233.6L156.32 233.3L155.04 233.01L153.74 232.75L152.42 232.5L151.07 232.26L149.7 232.05L148.31 231.84L146.9 231.66L145.46 231.49L144 231.34L142.52 231.2L141.01 231.08L139.48 230.97L137.93 230.88L136.35 230.81L134.75 230.76L133.13 230.72L131.48 230.69L129.81 230.68L128.15 230.69L126.52 230.69ZM385.75 392.93L422.29 392.93L422.29 328.17L480.12 328.17L480.12 298.54L422.29 298.54L422.29 261.75L484.19 261.75L484.19 231.88L385.75 231.88L385.75 392.93ZM97.06 196.74L452.94 196.74L452.94 142.71L357.67 142.71L357.23 142.7L356.79 142.67L356.35 142.63L355.92 142.57L355.5 142.49L355.08 142.4L354.67 142.29L354.27 142.16L353.87 142.02L353.48 141.86L353.09 141.69L352.72 141.51L352.35 141.31L351.99 141.09L351.64 140.87L351.31 140.63L350.98 140.38L350.66 140.11L350.35 139.84L350.05 139.55L349.76 139.25L349.49 138.95L349.22 138.63L348.97 138.3L348.73 137.96L348.5 137.61L348.29 137.25L348.09 136.88L347.91 136.51L347.74 136.12L347.58 135.73L347.44 135.34L347.31 134.93L347.2 134.52L347.11 134.1L347.03 133.68L346.97 133.25L346.92 132.81L346.9 132.37L346.89 131.93L346.89 21.57L97.06 21.57L97.06 196.74Z" id="f1ndDANjs"></path></defs><g><g><g><use xlink:href="#b6qPBrhw4D" opacity="1" fill="#4d8093" fill-opacity="1"></use><g><use xlink:href="#b6qPBrhw4D" opacity="1" fill-opacity="0" stroke="#000000" stroke-width="1" stroke-opacity="0"></use></g></g><g><use xlink:href="#aS0rJ6Xpw" opacity="1" fill="#4d8093" fill-opacity="1"></use><g><use xlink:href="#aS0rJ6Xpw" opacity="1" fill-opacity="0" stroke="#000000" stroke-width="1" stroke-opacity="0"></use></g></g><g><use xlink:href="#f1ndDANjs" opacity="1" fill="#4d8093" fill-opacity="1"></use><g><use xlink:href="#f1ndDANjs" opacity="1" fill-opacity="0" stroke="#000000" stroke-width="1" stroke-opacity="0"></use></g></g></g></g></svg>