<svg width="448" height="512" xmlns="http://www.w3.org/2000/svg">
 <!--! Font Awesome Pro 6.1.1 by @fontawesome - https://fontawesome.com License - https://fontawesome.com/license (Commercial License) Copyright 2022 Fonticons, Inc. -->

 <g>
  <title>Layer 1</title>
  <path id="svg_1" d="m13,94c0,-17.67 1.33,-30 19,-30l384,0c17.7,0 20,14.33 20,32c0,17.7 -2.3,32 -20,32l-384,0c-17.67,0 -19,-16.3 -19,-34zm119,164c0,-17.7 -0.67,-34 17,-34l267,0c17.7,0 17,14.3 17,32c0,17.7 0.7,32 -17,32l-267,0c-17.67,0 -17,-12.3 -17,-30zm284,190l-266,0c-17.67,0 -17,-16.3 -17,-34c0,-17.7 -0.67,-30 17,-30l266,0c17.7,0 16,14.3 16,32c0,17.7 1.7,32 -16,32z"/>
 </g>
</svg>