<svg xmlns="http://www.w3.org/2000/svg" viewBox="0 0 512 512">
 <g>
  <path d="m88,48c13.3,0 24,10.75 24,24l0,48c0,13.3 -10.7,24 -24,24l-48,0c-13.25,0 -24,-10.7 -24,-24l0,-48c0,-13.25 10.75,-24 24,-24l48,0zm392,16c17.7,0 32,14.33 32,32c0,17.7 -14.3,32 -32,32l-304.875,0c-17.7,0 -32,-14.3 -32,-32c0,-17.67 14.3,-32 32,-32l304.875,0zm0,160c17.7,0 32,14.3 32,32c0,17.7 -14.3,32 -32,32l-185.25,0c-17.7,0 -32,-14.3 -32,-32c0,-17.7 14.3,-32 32,-32l185.25,0zm0,160c17.7,0 32,14.3 32,32c0,17.7 -14.3,32 -32,32l-184.91699,0c-17.7,0 -32,-14.3 -32,-32c0,-17.7 14.3,-32 32,-32l184.91699,0zm-335.625,-152c0,-13.3 10.75,-24 24,-24l48,0c13.3,0 24,10.7 24,24l0,48c0,13.3 -10.7,24 -24,24l-48,0c-13.25,0 -24,-10.7 -24,-24l0,-48zm72.33301,136c13.3,0 24,10.7 24,24l0,48c0,13.3 -10.7,24 -24,24l-48,0c-13.25,0 -24,-10.7 -24,-24l0,-48c0,-13.3 10.75,-24 24,-24l48,0z" id="svg_1"/>
  <line fill="none" x1="69.99925" y1="256.99882" x2="155.33239" y2="256.99882" id="svg_9" stroke-width="16" stroke="#000000"/>
  <line fill="none" stroke-width="16" x1="63.99926" y1="142.99909" x2="63.99926" y2="422.42848" id="svg_11" stroke="#000000"/>
  <line fill="none" x1="55.99928" y1="417.66511" x2="156.66572" y2="417.66511" id="svg_12" stroke-width="16" stroke="#000000"/>
 </g>
</svg>